<?xml version="1.0" encoding="UTF-8"?>
<!-- Created with Inkscape (http://www.inkscape.org/) -->
<svg width="5334.7" height="5334.7" version="1.1" viewBox="0 0 5334.7 5334.7" xmlns="http://www.w3.org/2000/svg">
 <g>
  <g fill-rule="evenodd">
   <path transform="matrix(.13333 0 0 -.13333 0 5334.7)" d="m40006 40009h-4e4v-4e4h4e4v4e4" fill="#2a7fff"/>
   <path transform="matrix(.13333 0 0 -.13333 0 5334.7)" d="m13277 10958c4.7-3 10.9-7.2 22.1-16.2-618-919.3-1086.4-2152-743-2518.6 343.7-366.74 435.5-339.8 612.5-324.61-267.6-580.46-487.3-995.8-100.4-1408.5 386.6-412.7 830-332.68 1139.7 19.64-470.3-792.29-751.4-3772.8-297.8-4256.8 453.7-484.04-303.5-1633.1 27.3-1230.9l-4.2-34.38c-686.4-757.65-97.1-44.45-383.7-543.92-250.8-437.05-214.7-511.24-153.5-634.48h23102c11.4 41.07 20.7 84.461 27.8 130.53 85.9 559.09-330.3 777.7-878.7 1105.2 154.6 87.38 250.9 151.97 321.8 613.89 70.9 461.85-784.1 1120.9-1705.4 1520.9-313.1 763.54 1160.7 1507.4 784.1 2300.6v0.63c7.9 61.31-27 133.09-102 213.87-171.3 357.56-348 720.16-529.7 1088.9 28.1 60.82 3-39.19 77.8 208.23 74.4 247.38-271.9 882.59-833 1309.4l-103.9 207.71c291.9-41.59 558.3 140.76 693.3 588.67 135 448.13-217.9 816.3-715.4 1217.3 165.6 65.2 259.7 81.7 404.8 562.7 145.1 481.3-822 1377.9-1784 1927.3 27 59.5 0.6-44.6 75 202.6 69.3 229.7-228 798-723.8 1221.2l879.6 524.6c-259.7 453.7-1322.5 910.8-2281.5 1111.6-707.7 1182.4-1242.5 2387.4-1731.8 3603.2 509.2-156.2 982.6-81 1090.7 580.2 108 661.2-2959.4 982.8-3791.3 1378.9 453.3-120.4 866.2 60.1 957.5 618.5 91.2 558.3-322.5 780.8-868.1 1113.6 155.4 86.2 246.7 114.9 327.8 610.7 80.9 495.8-994.6 1258.9-2020 1677.9 18.8 62.6 6.2-44.1 47.9 210.8 41.7 255.1-390 844-1007.2 1195.5 160.8 83.6 218.1-119.8 338.3 616.2 120.3 735.9-3231.3 2119.7-3643 2235.6-948.3 553.4-1936 687.1-2890 154.1l-5166.2-2886.4-3180.8-2137.7c-127.62-379.9-199.92-1149.1-73.42-2170.7l-0.08 0.2s-710.64-3955.8 453.25-4290.9c339.47-97.7 557.5-67.7 701.74 41.9 53.35-708.3 228.99-1300.9 649.24-1422.1 76.2-21.9 146.4-37.2 211-47-60.5-1106.2 17.6-2361.4 651.4-2543.8 332-95.6 547.8-68.9 692.2 34.6 67.2-635.5-1273.7-1954.9-771.1-2099.5 502.8-144.7 833.6 67.1 934.4 444.3l37.5-44.2c22.1-844.9 230.1-1621.5 665.3-1746.7 435-125.4 616-56.9 758.1 92.3 69.8-80.2 129.9-159.1 182-236.9l-383.3-89.7" fill="#fef3d8"/>
   <path transform="matrix(.13333 0 0 -.13333 0 5334.7)" d="m36498 9.4492c11.4 41.07 20.7 84.461 27.8 130.53 85.9 559.09-330.3 777.7-878.7 1105.2 154.6 87.38 250.9 151.97 321.8 613.89 70.9 461.85-784.1 1120.9-1705.4 1520.9-313.1 763.54 1160.7 1507.4 784.1 2300.6v0.63c7.9 61.31-27 133.09-102 213.87-171.3 357.56-348 720.16-529.7 1088.9 28.1 60.82 3-39.19 77.8 208.23 74.4 247.38-271.9 882.59-833 1309.4l-103.9 207.71c291.9-41.59 558.3 140.76 693.3 588.67 135 448.13-217.9 816.3-715.4 1217.3 165.6 65.2 259.7 81.7 404.8 562.7 145.1 481.3-822 1377.9-1784 1927.3 27 59.5 0.6-44.6 75 202.6 69.3 229.7-228 798-723.8 1221.2l879.6 524.6c-259.7 453.7-1322.5 910.8-2281.5 1111.6-707.7 1182.4-1242.5 2387.4-1731.8 3603.2 509.2-156.2 982.6-81 1090.7 580.2 83.4 511.2-1730 819.3-2942.2 1115.9l-163.9-114.7s1892.9-2388.2 1842.8-4141.9c-50.2-1753.7-735.1-1747.3 304.1-2250.1 1039.3-502.7 2087.4-1841 1961.2-2842.1-126.6-1001.2-1731.1-175.6-283.9-1701.4 1447.4-1525.7 1952.5-2006.8 2224.9-3195.6 272.7-1188.7 688.4-2287 236.7-2332.8-451.6-45.9-517.9-888.87 568.1-2603.4 638.5-1007.5 795.3-1669.9 767.8-2173.3h2518.7" fill="#fffcec"/>
   <path transform="matrix(.13333 0 0 -.13333 0 5334.7)" d="m13277 10958c4.7-3 10.9-7.2 22.1-16.2-618-919.3-1086.4-2152-743-2518.6 343.7-366.74 435.5-339.8 612.5-324.61-267.6-580.46-487.3-995.8-100.4-1408.5 386.6-412.7 830-332.68 1139.7 19.64-470.3-792.29-751.4-3772.8-297.8-4256.8 453.7-484.04-303.5-1633.1 27.3-1230.9l-4.2-34.38c-686.4-757.65-97.1-44.45-383.7-543.92-250.8-437.05-214.7-511.24-153.5-634.48h3584.6c80.8 269.89 102.8 510.3 77.3 647.85-128.8 691.94-1197.4 372.65-951.3 758.84 245.9 386.11 1400.1 1187.5 1412.9 1435.8 12.9 248.37 57.3 747.18-202.5 872.88-259.9 125.65-375.2 513.31-493 1299.6-117.8 786.37-34.3 1650.1-244.5 1286.7s-631.2-710.12-475.7-181.29c155.4 528.81 696.3 1192 586.9 1333-109.3 140.98-1350.2 2258.2-1529.1 3646.6-178.8 1388.2-209.4 1689.3-1007.1 1684.4-508.8-3.1-1137.8-652.4-1749.8-1352.2 87.7-126.3 192.5-213.8 315.5-249.2 435-125.4 616-56.9 758.1 92.3 69.8-80.2 129.9-159.1 182-236.9l-383.3-89.7" fill="#f5daae"/>
  </g>
  <path transform="matrix(.13333 0 0 -.13333 0 5334.7)" d="m13408 10834c-314.5-472.4-587-1024.8-724.5-1491.2-112.1-380.03-136.6-688.95-17.5-816.23 278.1-296.74 348.9-290.57 465.2-279.86l283.8 25.59-145.1-314c-225.8-487.29-391.4-845.12-91.8-1164.8 23.2-24.63 46.7-47.62 70.3-68.19 135.8-119.48 274.5-168.95 404.8-161.84 132.2 7.4 261.8 71.87 376.5 179.16 24 22.55 45.9 45.03 65.2 66.98l242.4-176.84c-232.5-392.02-418.3-1368.4-482.4-2285.4-58-828.57-21.4-1592.1 165.1-1791 356.9-380.7 121.5-1033.1 14.1-1329.6l52.9-22.55-4.1-34.48-38-83.44-211.7-230.89c-37.1-77.687-87-172.3-152.7-286.72-211.1-367.84-188-414.66-149.3-492.54 8.1-16.457 17-34.379 29.7-63.715l1.3-2.9961h-1408.8c91.9 33.867 195.1 62.172 306.3 83.355 217.9 41.429 473.2 58.562 737.1 38.672-8.4 115.18 41 273.59 221.4 587.75 39 68.003 73.4 118.09 103.5 153.94l-44.3 46.312 1.6 1.621c8.8 8.84 59.6 58.922 222.1 236.38 4.7 47.94 24.8 103.6 48.9 170.75 87.5 242.21 280.5 775.57 49.8 1021.7-248.9 265.42-309.3 1117.2-246.4 2017.8 48.3 690.49 166.9 1420.2 325.6 1934.9-67.8-22.8-137.8-36.44-208.9-40.39-208.2-11.24-421.5 60.73-621 236.18-30.5 26.79-61 56.46-91.2 88.5-405.6 432.78-264.4 837.59-23.7 1364.8-119.5 29.51-256.7 121.17-488.4 368.35-201.7 215.35-192.6 628.49-51.3 1107.6 136.3 462.09 395.2 1000.1 697 1472.7l-127.1 85.2c-84 10.8-178.6 30.9-286.2 61.8-254.7 73.4-440.8 308.3-565.8 636.3-92.1 242.1-152.8 539.1-184.5 858.4-46.5-42.8-98.8-79.6-156.4-109.7-185.6-96.7-423-120.7-702.4-46.1l-27.9 7.7c-219.9 63.3-262.3 223.8-198.5 446.1 56.7 196.8 214.9 452 384.2 725 179.2 288.9 371.8 599.8 446.6 841.2-27-4.7-55.3-8.1-84.8-10-131-9-285.4 9.9-468.7 62.7-337.7 97.2-540.2 422.4-652.5 861.1-122.8 479.9-140.2 1107.3-114.1 1704.4l-95.9 25.4c-259.76 74.9-439.87 285-560.09 578.8-87.82 214.4-144 476.1-177.19 761.7-42.2-11-87.22-18.6-135.41-22.5-133.29-10.4-290.77 8.1-478.24 62.1-1243.2 358-617.34 4132.2-563.91 4441.5-56.75 467.5-72.54 883-60.71 1232.9 14.48 427.8 70.42 762.6 143.41 979.8l59.34 77.3c2962.9 1991.2 5180.3 3255.3 8357.5 5030.5 485.4 271.1 979.9 379.1 1474.4 352.6 521.8-27.5 1041.1-205.3 1547.4-498 309-94.3 1748.8-679.9 2731-1282.6 612.6-375.9 1058.5-776 1002.8-1117.4-57.7-353.2-111.5-526.5-173-614.4 205.6-146.6 383.6-313.9 521-477 226.9-269.4 349.8-543.3 320.8-720.2l-17.1-99.1c519.5-224.8 1040.7-530.5 1414.6-841 384.5-319.3 622.1-657.2 574.7-948.7-54.7-334.3-117.9-486.7-200.7-577.8 493.6-303.7 836.5-561.4 740.8-1146.3-6.8-42.7-15.9-84.6-26.6-125.3-68-255.5-203.6-433.2-379.8-539.6 245.7-63.5 528.1-127.9 819.4-194 1186.5-270 2513.4-572.3 2420.9-1138.6-10.3-64.5-25.1-126.2-43.1-184.8-78.5-256.6-220.3-418.4-401.4-507.9-162-80.1-349.7-98.1-547.7-72.6 210-513.6 431.2-1027 673.1-1540.5 273.3-579.5 571.1-1153.8 907.1-1720.1 495.9-109.2 1014.3-283.6 1436-489 413.7-201.6 741.3-437.9 880.4-680.9l73.3-128.7-832.9-496.7c180.6-178.2 329.2-371.3 435.8-551.3 160.4-270.9 229.9-527.8 181.7-687.7l-29.8-95.4c486.1-290.9 962.8-662 1293.1-1018.6 339.5-366.7 531-732.8 445.6-1015.8-98.7-327.9-181.9-470.4-277.1-549.3 182.5-157.6 337.9-313.8 447.9-477 158.4-235.14 222.2-480.28 139.9-753.75-73.9-245.21-186-423.52-322.1-538.86-80.8-68.54-168.6-114.85-261.3-140.24 252.8-203.84 461.5-446.82 606.5-675.04 187.4-294.66 272-580.27 220.4-751.74-24.3-80.26-40.9-131.37-53.7-165.52l236.2-481.73 250.9-520.32c40.6-46.22 72-91.77 93-135.85 21.3-45.62 33-90.49 34.9-134.4 201-473.16-110.2-892.73-418.4-1308-235.1-316.48-468-630.53-396-911.31 476.5-213.5 932.8-494.03 1254.3-780.83 326.8-291.42 520.7-600 478.4-874.52-38.7-253.17-87.6-402.16-149.7-503.51-16.9-27.55-34.4-51.23-52.4-72.14 500.2-300.7 849.6-554.65 759-1143.5-5.7-38.511-12.8-74.433-20.7-107.62h-313.4c6 18.355 11.5 37.301 16.7 57.016 7.9 32.688 14.7 64.672 19.6 96.484 66.3 433.29-272.5 634.93-733.9 909.1l-296.8 176.67 226.7 127.98c58.1 32.75 105.2 60.98 138 114.05 42 68.28 77.2 182.77 108.8 391.27 24.8 162-128.5 378.98-380.7 604.11-310.1 276.69-763.1 550.11-1235.5 755.32l-79.7 81.65c-185.1 451.48 113.5 853.71 414.6 1259.4 261.8 353 526.4 709.52 372.5 1033.7l-14.1 70.42 1.1 13.88-6 14.75c-11.2 22.23-30 48.11-57 77.11l-25.4 37.82-260.7 539.09-299.8 612.45 30 65.02c19.1 41.83 33 56.94 44.5 68.37 10.3 10.45-15.6-15.79 25.6 120.58 26.7 89.37-44.2 280.97-185.7 503.33-138.6 217.74-343.4 451.72-593.8 642.2l-43.9 53.26-232.6 464.69 284.7-40.51c108.3-15.27 211.7 12.2 299.2 86.54 92.7 78.74 172.1 209.36 228.6 396.31 52.6 174.71 7.3 337.84-100.9 498.8-123 182.22-325.7 365.02-564.3 557.32l-202.9 163.5 264.5 103.2c109.4 42.3 175.6 68 292.9 457.2 50.2 166.7-109.1 432.8-378 723.5-336.5 363.5-836.7 744.1-1336.1 1029l-119.5 68.3 56.5 124.9c22.1 48.4 39 63.3 52.9 75.5 13.6 11.8-23.2-19.3 15.3 108.7 23.7 79.4-34.1 247-152.8 447.1-120.2 202.9-301 424.8-524.7 616l-159.8 136.2 916.9 546.8c-139.1 150-374.2 301.5-660.5 441-419 204.2-939.1 376.3-1430.8 479.4l-64.9 13.5-33.8 56.6c-357.9 597.7-671 1198.6-955.1 1802-282.9 599.9-540.3 1208.8-787.1 1822.1l-118.1 292.9 301.9-92.5c66.8-20.4 134.2-36.8 201.5-47.8 158.2-25.8 302.8-18.6 416.5 37.6 108 53.3 194.7 156.7 246.5 325.8 12.9 41.8 24 90.2 32.8 144.6 46.9 287.1-1133.5 555.9-2189 796-623.6 141.9-1207 274.8-1517.8 422.7l103.4 282c29.7-7.9 60.3-14.5 91.1-19.5 154.9-25.3 298.4-6.5 412.1 61.1 112.1 66.6 199.8 184.8 246.1 358.9 7.7 29.4 14.6 61.5 20.2 96.2 70.9 432.8-266 637.7-724.8 916.3l-295 179.4 248.9 137.4c102.8 56.2 165.2 90.4 230.7 491.2 28.1 172.3-164.3 415.3-468.9 668.3-381 316.4-926.6 628.5-1459.1 846l-126.8 51.9 39.4 131c14.9 49.9 29.7 67.2 41.6 80.7 12.3 14.2-19.8-21.2 1.8 110.8 15 92-81.9 273.8-253.6 477.5-168.1 199.6-404.2 406.3-679.1 562.9l-240.6 136.8 245.8 127.9c59.9 31.1 105 37.3 144.9 42.6 24.3 3.3 38.7 5.4 113.6 463.9 31.4 192.1-348.1 496.4-862.4 812-979.1 600.5-2414.1 1181.7-2671.9 1254l-35.5 15.5c-471.3 275.2-951.4 442.1-1428.8 467.5-439.1 23.5-878.9-73.1-1311.8-315l-5159.9-2882.7-3132.1-2105c-57.63-194.3-101.1-481.8-113.48-846.4-11.57-342.6 4.3-750.8 61.25-1210.9l-83.37-29.7 82.42-14.7c-1.88-10.8-686.55-3822 346.31-4119.4 151.89-43.7 273.42-59.1 369.99-51.6 84.31 6.7 149.13 31 198.8 68.6l220.58 167.3 20.93-275.7c25.63-339.5 79.68-649.7 176.5-886.1 85.8-209.5 204-356.5 364.2-402.6 32.4-9.3 66.1-18 100.6-25.5 36.8-8.3 67-14 90.9-17.6l135.5-20.7-7.4-136.2c-33.1-608.6-24-1261.9 99.7-1744.9 86.4-337.9 226.1-583.6 443-646 148.7-42.8 268.3-58.5 364.2-52 83.9 5.7 148.8 28.4 198.4 64.1l210.4 151 27.3-257.6c36.9-349.4-255.3-821-520.7-1248.8-157.6-254.2-305-492-350.2-649.3-12.3-42.5-16.7-69.9-8.1-72.2l21.6-6.2c202.4-54 366-40.8 486.3 21.9 114.5 59.7 194.7 168.8 235.2 309.7l80 288.7 221.7-261.3 36.2-93.8c11.4-433.2 72.7-845.8 189.3-1152.4 91.9-240.9 214-409.5 366.7-453.4 193.7-55.8 326.3-69.1 422-52.8 394.9 67.5 232.6-56.9 694.3 138.5l-470-589zm-2709.2-10825c77.8 126.49 127.9 164.66 248 124.17 52.6-17.918 81.4-48.879 124.7-95.531l27.2-28.637h-399.9zm3252.2 1252.8c-16.2 9.37-26.5 15.2-20 8.58l20-8.58" fill="#100f0d"/>
  <path transform="matrix(.13333 0 0 -.13333 0 5334.7)" d="m9221.6 25179s-1634.5-578.7-2643.1 97c-1008.7 675.5-1964.4 962.6-2110-31.8-145.8-994.5 168.96-3182.3 1640.8-4059.7 1471.7-877.4 3624.8 556 3624.8 556l378.5 1843-890.94 1595.5" fill="#df9845" fill-rule="evenodd"/>
  <path transform="matrix(.13333 0 0 -.13333 0 5334.7)" d="m9145.7 24988c-417.85-123.3-1757.5-446.7-2656.6 155.4-453.86 304.3-892.03 525.7-1237.3 576.4-119.98 17.7-226.67 13.8-314.76-15.7-79.42-26.6-146.65-76.4-198.12-152.8-52.99-79.5-91.42-188.2-112.17-329.6-81.14-554.6-12.87-1497.1 335.52-2358.8 249.9-618.1 643.81-1191.6 1229-1540.5 1252-746.5 3061.8 306.9 3399.9 517.5l352.72 1718.3-798.1 1429.8zm-2478.2 421.9c942.29-630.9 2496.5-80.7 2500.9-79.1l127.45 44.5 956.17-1713 17.2-109.9-391.88-1909.4-55.66-36.1c-6.36-4.2-2235.4-1488.5-3794.6-558.9-653.25 389.6-1088.7 1019-1361.8 1694.4-371.11 918.1-442.97 1928.5-355.67 2525.6 28.06 191.2 83.89 343.8 162.88 461.8 93.57 138.9 216.22 229.4 362.43 278.4 137.65 46.1 293.81 53.5 463.05 28.6 396.82-58.2 879.51-298.8 1369.5-626.9" fill="#100f0d"/>
  <path transform="matrix(.13333 0 0 -.13333 0 5334.7)" d="m8777.1 24274s-939.73-552.6-1643.1-256.1c-703.36 296.5-1327.6 359.4-1298.6-271.9 28.91-631.3 484.65-1944.1 1498-2309.7 1013.3-365.7 2171 776.4 2171 776.4l13.2 1182.9-740.56 878.4" fill="#af5a1e" fill-rule="evenodd"/>
  <path transform="matrix(.13333 0 0 -.13333 0 5334.7)" d="m14523 29238s985.1 1426.7 596.2 2576.8c-388.8 1150.1-416.5 2147.8 581.6 2028.6 998.1-118.9 3027.7-993.6 3490.5-2643.6 462.9-1649.8-1482.9-3354.1-1482.9-3354.1l-1877.8 115.9-1307.6 1276.4" fill="#df9845" fill-rule="evenodd"/>
  <path transform="matrix(.13333 0 0 -.13333 0 5334.7)" d="m14392 29330c2.7 3.8 939 1359.6 576 2433.6-189 558.8-295.3 1087.9-247.8 1486.1 20.2 169.1 68.2 318 148.9 439.1 85.7 128.8 204.9 223.4 362.5 276.9 134.8 45.5 296.7 59.7 488.1 36.8 599.1-71.5 1555.7-404.5 2345.3-1002.6 581-440.2 1075.3-1024.7 1280.5-1756.4 490.6-1747.4-1525.1-3512.5-1530.9-3517.4l-49.6-44.2-1944 119.7-101.9 45.6-1404.7 1371 77.6 111.8zm879.3 2536.4c346.3-1024.4-314.1-2232-542.8-2604.6l1171.7-1143.8 1751.3-108c290.7 270.3 1780.4 1741.9 1386.1 3146.2-184.2 656.8-634.7 1187-1165.9 1589.2-740.6 561.1-1632.6 872.8-2189.4 939.1-142.6 16.9-257.6 8.4-347.7-22.1-87.6-29.8-153.2-81.6-199.6-151.1-51.2-76.7-82.4-178.4-96.9-298.9-41.4-347 58.1-828.3 233.2-1346" fill="#100f0d"/>
  <path transform="matrix(.13333 0 0 -.13333 0 5334.7)" d="m15513 29430s778.6 762.9 676 1519.1c-102.5 756.6-0.4 1375.7 601.4 1182.9 601.9-192.6 1750.2-975.3 1838.7-2049.1 88.5-1073.4-1316.3-1893-1316.3-1893l-1145.3 295.9-654.5 944.2" fill="#af5a1e" fill-rule="evenodd"/>
  <path transform="matrix(.13333 0 0 -.13333 0 5334.7)" d="m18555 19096c1645 1242.8 3536 1513.6 4761.1-105.6s1320.2-4515-324.7-5757.9c-1644.9-1243-4407.1-362.2-5632.2 1256.9-1225 1619.1-449.1 3363.6 1195.8 4606.6" fill="#df9845" fill-rule="evenodd"/>
  <path transform="matrix(.13333 0 0 -.13333 0 5334.7)" d="m13186 16320c-83.8 233.4-98.7 459.4-61.3 668.1 41.4 231 147 440.3 294.3 614.9 68.3 80.9 146.6 154.7 231.9 220.1 85.9 65.8 179 122.5 276.1 168.8 99.1 47.1 203.4 83.5 309.8 107.8 104.8 24 212.4 36.4 319.5 35.9 211.9-1 423.6-51.6 617-161.4 173.8-98.6 332-244.9 461.8-445.3 53-58.5 49.4-142.8 11.9-213.4-16.7-31.1-40.4-60.6-68.6-83.2-30.9-24.9-67.8-42.6-107.6-47.7-73-9.4-149.4 19.5-209.1 114-88.1 137.3-193.8 236.6-308.2 302.5-124.4 71.7-260.4 104.7-396.5 105.2-72.2 0.3-145.1-8.2-216.4-24.6-73.4-16.8-145.6-42.4-214.5-75.1-69.9-33.2-136.4-73.8-197.3-120.4-60.2-45.9-115.9-99.1-165.3-157.3-100.6-119.2-172.6-261.5-200.6-417.6-25.5-142.1-14.9-296.8 43.5-457.3l1.3-4.1c38.8-128.8 8.8-235.1-48.3-296.5-25.6-27.5-56.9-47-91.1-56.7-36.1-10.2-74.7-9.8-112 3-71.5 24.3-138.8 94.1-170.3 220.3zm8834.1 7662.3c219-12.7 443.7-78.5 660-210.4 120.1-58.7 175.2-137.9 183.2-210.7 4.2-38.1-4-74.3-22.6-105.6-17.6-29.9-44.3-54.8-77.9-72.5-75.2-39.7-189.2-43.6-310.4 22.3l-3.9 2.2c-148.5 91.5-302.2 136.9-451.3 145.6-164 9.3-324-25.7-467.2-93-70.2-32.9-136.4-73.1-196.6-119-60.8-46.6-117.1-99.9-166.7-157.8-48.7-57.3-91-119.3-124.7-184.5-32.9-63.2-58.2-129.7-74.4-197.6-30.5-127.8-28.4-263.1 15.5-396.3 40.2-122.6 116.2-244.6 234.6-358.8 81.7-77.6 93.4-155.8 67.1-222.4-14.2-36.1-40.6-66.7-72.6-90.2-29.4-21.4-64.4-36.8-99.5-45.3-80.2-19.2-166.1-3.3-213 60-172.4 167.7-283.8 349.8-343.6 535.6-66.4 206.7-69 417.2-21.6 616.4 24.1 100.8 61.3 199 109.5 291.9 48.9 94.4 109.4 184 179.7 266.3 68.6 80.5 147.3 155 233.4 220.7 85.5 65.1 178 121.7 275.1 167.4 210 98.4 445.5 149.6 687.9 135.7" fill="#100f0d"/>
  <g fill-rule="evenodd">
   <path transform="matrix(.13333 0 0 -.13333 0 5334.7)" d="m14315 15628c417.3 319 949.6 341.4 1188.9 50 239.2-291.5 94.9-786.3-322.5-1105.3-417.5-319-949.7-341.3-1189-49.9-239.2 291.4-94.8 786.2 322.6 1105.2zm8670.1 6626.6c417.4 319 949.8 341.3 1189.1 49.9 239.2-291.3 94.7-786.2-322.6-1105.1-417.4-319.1-949.7-341.5-1188.9-50.1-239.2 291.5-94.9 786.2 322.4 1105.3" fill="#fbcbbb"/>
   <path transform="matrix(.13333 0 0 -.13333 0 5334.7)" d="m18643 16487c145.4-976 1540.9 74.3 1778 77.1 758.5-1121.1-128.9-1627.1-1132.1-2067 327.1-60.3 646.9-26 922 83.4 263.3 104.7 487.2 278.6 639.6 504.4 153.3 227.3 233.7 505.6 208.2 816.2-7.5 94-25 191-53.1 290.5 94.1-49 187.9-87.7 280.9-116.4 307.7-94.9 606.7-83.2 871.3 8.9 262.7 91.4 489.3 261.8 655.2 485.1 173.4 233.4 281.1 525.9 295.2 847-670.6-837.9-1381.2-1552.9-2332.4-602.6 295.5 518 1187.8 1704.5 241.8 1554.4-423.3-67.1-285.2-1304.1-561.5-1505.5-363.8-265.3-1873.8 31.8-1813.1-375.5" fill="#100f0d"/>
   <path transform="matrix(.13333 0 0 -.13333 0 5334.7)" d="m6126.3 18522c-3136.5 834.4-326.76 4145.5 695.64 4033.6-605.09 546.3 245.1 2230.5 1714.5 1207.4-1558.3 1383.5-11.42 4148 2753 3331-2165.5 2739.8 2384.8 3895.9 2802.9 1715.9-591.5 1901.5 2427.7 2565.4 2420.6 1440.9 0 0 1352.5 1863 2315.7 919.1 0 0 2691.8 2704.1 2995.4 300.8l-125.8-570.8c642.8-171 1961.4-715.1 1249.2-2208.1-924.6-1937.1-1944.6-1825.5-1944.6-1825.5s-278.5-2380.4-2883.1-1098.9c999.8-1369 566.1-2675.6-87.2-3231.6-1197.8-1019.4-2277.6-782.9-3702.5-600.2 1598.9-3930.4-2566-2444.7-2773.4-2443.2-106-489.1 229.8-1664.9-410.7-2190.8-640.3-525.8-1971.7-630-2498.8 157-69.8 104.2-125.54 215.8-168.09 332.7-797.6-649.7-2259.4-1574.1-2478.6 159.8l125.84 570.9" fill="#fef3d8"/>
   <path transform="matrix(.13333 0 0 -.13333 0 5334.7)" d="m5430.5 18797c-1957.9 1117.4 459.2 3860.7 1391.5 3758.5-554.99 501.3 114.49 1959.4 1363.2 1407.6-962.18-1316.9-1389.1-2776-1551.8-3577.5-76.67-377.6-558.13-956.6-1202.8-1588.6zm2830 5267.5c-1064.7 1443.3 453.53 3790.9 3029 3029.4-2165.4 2739.9 2384.9 3896 2802.9 1716-591.4 1901.5 2427.7 2565.4 2420.6 1440.9 0 0 1352.5 1863 2315.7 919.1 0 0 2562.9 2574.3 2968.9 465-1077.8-540.3-2266.3-1909.1-3864.9-2076.3-2276.7-238.1-2121 451.9-3408.4-973.7-1287.3-1425.4-1889.8-691.6-2550.4-1233.8-660.5-542.4 1549.2 65.2-1281.8-1276.2-1045.8-495.6-1836.5-1223.6-2431.6-2010.4" fill="#fffcf4"/>
   <path transform="matrix(.13333 0 0 -.13333 0 5334.7)" d="m16979 26249c1648.8 985.2 3141.8 141.8 3818.4 2328.5 374.7 1211.2 758.4 2279.5 949.8 3263 32.9-106.9 59-229.1 76.7-369l-125.8-570.8c642.8-171 1961.4-715.1 1249.2-2207.8-924.5-1937.5-1944.8-1825.8-1944.8-1825.8s-278.3-2380.4-2882.9-1099c999.8-1368.9 566.1-2675.5-87.2-3231.5-1057.6-900.2-2023.2-821.1-3215.5-664.4 1319.1 2487.7 2162.1 4376.8 2162.1 4376.8zm-2441.1-4898.1c502.8-1679.2-295.9-2105.7-1193.8-2132.7 425.3 731 825.5 1449.8 1193.8 2132.7" fill="#f5daae"/>
  </g>
  <path transform="matrix(.13333 0 0 -.13333 0 5334.7)" d="m5903 18390c-793.24 250.7-1198.8 671.4-1344.7 1158.7-93.33 311.8-77.13 645.3 14.04 974.7 87.82 317.3 246.14 632.7 442.3 920.8 413.46 607.7 1010.6 1101.2 1484.3 1254.3-81.3 204.4-82.5 446.7-13.88 679.4 48.11 162.8 129.74 321.4 241.15 457.5 112.96 137.8 257.81 255.4 430.37 334.5 218.51 100.2 478.4 138.1 770.42 76.8-133.02 268-197.68 554.6-200.43 842.1-3.61 389.8 106.6 780.3 314.24 1126.9 207.03 344.5 509.16 647.2 890.39 864.1 512.52 291.5 1168.5 429.5 1925.4 307.3-409.3 687.3-415.1 1276.6-189.9 1735.1 184.6 375.6 524.6 656.2 924.9 825.8 391.5 166.4 843.8 227.5 1263.3 168.3 385.5-54.5 744.6-208.3 1010.1-472.6 94 391.6 342.3 704.2 654.2 930.3 250.3 181.3 542.1 305.4 824.9 367.6 289.4 63.8 575.5 63.8 806.2-3.5 189-55.4 342.6-152.8 439.4-294 434 489.5 1405.2 1392.5 2231.7 780.8 568.8 529.9 2881.5 2515.7 3190.6 69.5l-2.6-64.6-87.8-398.2c127.7-40.9 268.7-93.5 410.6-161.4 294.1-140.5 591.7-344.8 787.2-638.2 201.9-302.8 293.3-691.7 161.5-1187.3-36.3-136.3-89.7-281.4-162.8-434.1-751.7-1575.6-1599.1-1871.8-1956-1924-111.3-503.7-614.6-2006-2572.9-1323.3 232.5-463.8 321.4-913.6 310.3-1323.1-19.4-714.6-344.5-1308.3-744.6-1648.6-1171.7-997.2-2215.5-861.4-3534.1-685.5 557.7-1559.3 165.7-2258.3-517.7-2536.5-767.7-312.3-1898-32.4-2379.2 90-1.9-103.9 3-226.7 8.3-357.7 23.7-587.2 53.2-1321.4-465.6-1747.3-37.4-30.8-80.6-62.3-128.8-94.7-353.9-236.6-841.5-372.8-1311.5-361-483.45 11.9-954.46 178.4-1259 549.2-24.39 29.8-50.02 64.8-76.78 104.6-30.62 45.3-58.75 92.2-84.65 140.1-281.46-214.4-615.34-435.1-945.38-574.6-273.93-116.1-548.99-178.1-798.18-141.4-270.6 39.8-503.11 188-662.79 493.3-87.74 167.3-152.08 383.8-186.71 657.5l2.56 64.5 87.65 397.9zm-981.84 1268.4c120.25-401.5 493.32-751.1 1253.6-953.4l175.83-46.9-157.72-716.1c29.24-210.3 78.22-373.4 142.37-495.9 96.05-183.6 229.34-271.6 381.82-294.1 173.84-25.6 380.96 24.2 595.27 115 371.19 157 754.73 432.7 1046.6 670.5l206.87 168.4 90.99-249.3c19.55-53.5 41.59-105 65.97-153.1 24.28-47.7 51.36-94.3 81.63-139.1 15.19-22.6 34.15-47.9 56.54-75.2 227.7-277.4 593.98-402.2 975.21-411.7 394.16-9.9 799.86 102.2 1090.6 296.8 31.8 21.4 64.8 46 98.9 74 373.1 306.2 347.9 935.1 327.5 1438-10 249.3-18.9 471.8 18.8 646l32.6 149.9 153.3-1c46.9-0.3 123.7-19.8 238.7-49.1 433.3-110.2 1500.1-381.7 2162.9-112 535.9 218 806 843.2 195.5 2343.7l-122.6 301.7 628.2-82.6c1230.8-163.7 2203.4-293.3 3249.6 597.2 327.8 278.9 594.5 771.3 610.7 1370 13 483.5-138.5 1036.8-553.7 1605l237 281.9c2364-1162.8 2610.6 946.3 2611.3 952.2l21.7 179.2 179.8-12.9c2.4-0.2 892.1-100.3 1759.7 1718.2 62.7 131.1 108.1 253.9 138.5 367.9 99.4 374.4 35.1 661.3-110.5 879.8-151.8 227.7-393.8 391.9-635.7 507.3-185.3 88.6-371.2 148.9-518.9 188.2l-175.9 46.6 157.4 715.1c-276.6 1959.9-2661.7-435.8-2668.7-442.6l-132.5-132.8-134.3 131.4c-805.1 789.3-2026.7-891.8-2030.2-896.5l-342.1 113.8c1 166.6-112.1 273.2-280 322.3-169 49.4-388.6 47.2-618-3.2-235.8-51.9-477.7-154.4-683.4-303.6-365.2-264.8-617.7-683.5-510.9-1235.2 18.7-59.7 34.4-122.2 46.9-187.1l-367.1-91.9c-20.1 64.4-36.3 127.6-49.3 189.5-161.9 475.7-584.7 731.2-1059.6 798.1-352.8 49.9-733.3-1.7-1062.6-141.6-320.7-135.8-590.7-355.6-733-645.5-208.3-423.6-144-1014.6 431-1742l-201.9-299c-853.3 252.2-1579.2 143.3-2116.6-162.4-324-184.2-579.85-439.8-753.18-729.4-171.87-288.4-263.46-609.9-260.46-928.4 4.12-426.9 178.4-852.1 556.52-1187.8l-234.31-296.9c-460.21 320.3-840.04 342.9-1113.1 217.7-116.41-53.4-215.63-134.7-294.53-231-80.54-98.2-138.88-210.5-172.31-324-65.27-221.3-39-447.5 101.62-574.4l-148.34-329.2c-363.31 39.8-1021.6-471.8-1473.3-1135.8-173.84-255.6-313.64-532.9-390.11-808.9-73.02-264.1-87.58-526.2-16.59-763.8" fill="#100f0d"/>
 </g>
</svg>
